<svg xmlns="http://www.w3.org/2000/svg" viewBox="0 0 1200 360" role="img" aria-label="BeaconGhost logo">
  <defs>
    <radialGradient id="bg" cx="20%" cy="20%" r="80%">
      <stop offset="0" stop-color="#14271d"/>
      <stop offset="0.55" stop-color="#0b0f14"/>
      <stop offset="1" stop-color="#05070a"/>
    </radialGradient>
    <filter id="glow" x="-50%" y="-50%" width="200%" height="200%">
      <feGaussianBlur stdDeviation="7" result="blur"/>
      <feMerge><feMergeNode in="blur"/><feMergeNode in="SourceGraphic"/></feMerge>
    </filter>
  </defs>
  <rect width="1200" height="360" rx="36" fill="url(#bg)"/>
  <g transform="translate(58 36) scale(.285)" filter="url(#glow)">
    <path d="M210 790 L210 510 C210 300 335 220 512 220 C689 220 814 300 814 510 L814 805 L724 760 L634 850 L544 760 L454 850 L364 760 L274 850 Z" fill="#061014" stroke="#39ff14" stroke-width="22"/>
    <ellipse cx="405" cy="500" rx="62" ry="47" fill="#020506" stroke="#39ff14" stroke-width="18"/>
    <ellipse cx="620" cy="500" rx="62" ry="47" fill="#020506" stroke="#39ff14" stroke-width="18"/>
    <circle cx="405" cy="500" r="16" fill="#39ff14"/>
    <circle cx="620" cy="500" r="16" fill="#39ff14"/>
    <path d="M450 615 C490 655 535 655 575 615" fill="none" stroke="#39ff14" stroke-width="16" stroke-linecap="round"/>
    <path d="M708 262 A110 110 0 0 1 785 338" fill="none" stroke="#39ff14" stroke-width="18" stroke-linecap="round"/>
    <path d="M748 222 A168 168 0 0 1 824 377" fill="none" stroke="#39ff14" stroke-width="14" opacity=".65" stroke-linecap="round"/>
  </g>
  <text x="345" y="152" fill="#f2f8f5" font-family="DejaVu Sans Mono, Consolas, monospace" font-weight="700" font-size="84">Beacon</text>
  <text x="690" y="152" fill="#39ff14" font-family="DejaVu Sans Mono, Consolas, monospace" font-weight="700" font-size="84">Ghost</text>
  <text x="350" y="216" fill="#cbd5db" font-family="DejaVu Sans Mono, Consolas, monospace" font-size="24">Remembered WiFi networks. Public geolocation traces.</text>
  <text x="350" y="260" fill="#39ff14" font-family="DejaVu Sans Mono, Consolas, monospace" font-size="22">by M@infr@meMonkey</text>
</svg>